# xmcd
# 
# Track frame offsets:
#     150
#     17466
#     34029
#     48584
#     65582
# 
# Disc length: 1072
# 
# Revision: 0
# Processed by: cddbd v1.5.2PL0 Copyright (c) Steve Scherf et al.
# Submitted via: fre:ac v1.0.17
# 
DISCID=39042e05
DTITLE=Little Hours - Too Much Patience
DYEAR=2017
DGENRE=Singer/Songwriter
TTITLE0=Later On
TTITLE1=How Could I Love You?
TTITLE2=Call Somebody
TTITLE3=Losing Light
TTITLE4=Water
EXTD=
EXTT0=
EXTT1=
EXTT2=
EXTT3=
EXTT4=
PLAYORDER=
